<svg xmlns="http://www.w3.org/2000/svg" version="1.1" xmlns:xlink="http://www.w3.org/1999/xlink" xmlns:svgjs="http://svgjs.com/svgjs" width="16" height="16"><svg width="16" height="16" viewBox="0 0 16 16" fill="none" xmlns="http://www.w3.org/2000/svg">
<path d="M1 4.74738L3.74149 11.2525H6.5226L9.24824 4.74738H6.72068L5.12808 9.09732L3.53548 4.74738H1Z" fill="black"></path>
<path d="M12.3932 4.55722C10.8798 4.55722 9.48533 5.20694 9.48533 6.49053C9.48533 7.84542 10.6897 8.32875 11.5375 8.51099C12.2268 8.66153 12.6626 8.82 12.6626 9.20032C12.6626 9.54895 12.2585 9.77081 11.585 9.77081C10.8798 9.77081 10.1905 9.39841 9.91319 9.16071L9.15254 10.7216C9.41401 10.9355 10.3173 11.4426 11.799 11.4426C13.2172 11.4426 15 10.9989 15 9.1924C15 7.85335 13.8432 7.41756 12.8845 7.21948C12.1476 7.06893 11.7435 6.88669 11.7435 6.55391C11.7435 6.22905 12.1476 6.07059 12.6626 6.07059C13.3282 6.07059 13.9303 6.37167 14.1284 6.53014L14.9049 5.1277C14.691 4.96131 13.6451 4.55722 12.3932 4.55722Z" fill="black"></path>
</svg><style>@media (prefers-color-scheme: light) { :root { filter: none; } }
@media (prefers-color-scheme: dark) { :root { filter: invert(100%); } }
</style></svg>