<svg width="1000" height="1000" viewBox="0 0 1000 1000" fill="none" xmlns="http://www.w3.org/2000/svg">
<path fill-rule="evenodd" clip-rule="evenodd" d="M632.64 150H367.36C351.344 150 338.36 162.984 338.36 179V821C338.36 837.016 351.344 850 367.36 850H632.64C648.656 850 661.64 837.016 661.64 821V179C661.64 162.984 648.656 150 632.64 150ZM367.36 125C337.537 125 313.36 149.177 313.36 179V821C313.36 850.823 337.537 875 367.36 875H632.64C662.463 875 686.64 850.823 686.64 821V179C686.64 149.177 662.463 125 632.64 125H367.36Z" fill="#F5F5F5"/>
</svg>
