<svg width="1000" height="1000" viewBox="0 0 1000 1000" fill="none" xmlns="http://www.w3.org/2000/svg">
<path fill-rule="evenodd" clip-rule="evenodd" d="M838 150H317C315.895 150 315 150.895 315 152V425H327.095C344.992 425 359.5 439.506 359.5 457.4V842.6C359.5 845.146 359.206 847.623 358.651 850H838C839.105 850 840 849.105 840 848V152C840 150.895 839.105 150 838 150ZM327.095 875H838C852.912 875 865 862.912 865 848V152C865 137.088 852.912 125 838 125H317C302.088 125 290 137.088 290 152V425H167.905C150.008 425 135.5 439.506 135.5 457.4V842.6C135.5 860.494 150.008 875 167.905 875H317H327.095ZM292.807 860H327.095C336.707 860 344.498 852.21 344.498 842.6V457.4C344.498 447.79 336.707 440 327.095 440H315H290H167.905C158.294 440 150.502 447.79 150.502 457.4V842.6C150.502 852.21 158.293 860 167.905 860H292.807Z" fill="#F2F2F2"/>
</svg>
