<svg id="instructions" xmlns="http://www.w3.org/2000/svg" viewBox="0 0 283.46457 283.46457"><defs><style>.cls-1{isolation:isolate;}.cls-2{fill:#fff;stroke:#000;stroke-miterlimit:10;}</style></defs><title>01-arm</title><g class="cls-1"><path class="cls-2" d="M139.74166,135.4077a14.723,14.723,0,0,1-6.68213-11.56653c.006-2.11389.752-3.601,1.95532-4.3003L115.0364,131.1511c-1.20331.69928-1.94934,2.18641-1.95532,4.3003a14.72271,14.72271,0,0,0,6.68213,11.56646c1.86425,1.07636,3.553,1.176,4.772.46759l19.97851-11.61022C143.29464,136.58366,141.60592,136.484,139.74166,135.4077Z"/><path class="cls-2" d="M177.666,155.2017,174.161,137.35679a15.872,15.872,0,0,0-6.85889-10.08862l-27.49237-15.87274a15.51916,15.51916,0,0,0-3.55133-1.52857,8.2927,8.2927,0,0,0-6.54907.53254l-19.97845,11.61022a8.29275,8.29275,0,0,1,6.54907-.53253,15.51872,15.51872,0,0,1,3.55133,1.52857l27.49231,15.87274a15.87194,15.87194,0,0,1,6.859,10.08862l3.50506,17.84491c.63825,3.26172-.14947,5.7356-1.857,6.72791L175.809,161.92967C177.51656,160.9373,178.30428,158.46348,177.666,155.2017Z"/><path class="cls-2" d="M157.68759,166.81193c.96447,4.9292-1.32747,8.059-5.12947,6.99559a7.78871,7.78871,0,0,1-1.77644-.76545,15.83445,15.83445,0,0,1-6.85181-10.08744l-.81953-4.17674a5.30138,5.30138,0,0,0-2.28819-3.36257,2.59549,2.59549,0,0,0-.59208-.25511,1.50531,1.50531,0,0,0-.74815-.03513c-2.31627.44834-4.95248.94724-11.81189,2.2925a9.441,9.441,0,0,1-4.37994-.25068,15.60417,15.60417,0,0,1-3.56314-1.53442c-6.32227-3.65016-12.07418-11.86207-13.706-20.17145-1.93534-9.85465,2.65484-16.11825,10.259-13.98393a15.51709,15.51709,0,0,1,3.55134,1.52857l27.49232,15.8727a15.87222,15.87222,0,0,1,6.85892,10.08866Zm-37.92439-19.794c3.70306,2.138,6.71371.42241,6.72575-3.82549a14.72463,14.72463,0,0,0-6.68209-11.57373c-3.70307-2.138-6.71371-.42241-6.72577,3.8327a14.72274,14.72274,0,0,0,6.68211,11.56652"/></g></svg>