<svg id="instructions" xmlns="http://www.w3.org/2000/svg" viewBox="0 0 283.46457 283.46457"><defs><style>.cls-1{isolation:isolate;}.cls-2{fill:#fff;stroke:#000;stroke-miterlimit:10;}</style></defs><title>02-leg</title><g class="cls-1"><path class="cls-2" d="M151.92473,105.24857a14.72444,14.72444,0,0,1-6.68207-11.57373c.006-2.1112.75262-3.59869,1.95685-4.29852l-19.97846,11.61023c-1.20422.69983-1.95086,2.18732-1.95685,4.29846a14.72469,14.72469,0,0,0,6.68207,11.57379c1.8634,1.07587,3.55152,1.17591,4.77039.46753l19.97845-11.61017C155.47624,106.42448,153.78819,106.32444,151.92473,105.24857Z"/><path class="cls-2" d="M163.15933,205.35883a10.0589,10.0589,0,0,1,.0984,1.36481c-.01279,4.512-3.20268,6.32248-7.12286,4.05916l-48.82988-28.192a15.58833,15.58833,0,0,1-7.07661-12.25723,7.6923,7.6923,0,0,1,.10587-1.24687l11.83276-75.067c1.57624-10.09795,9.8682-13.72463,19.86655-7.95207s18.24268,18.94645,19.75661,30.82851Zm-31.21306-88.5c3.70308,2.138,6.71364.42235,6.7257-3.83278a14.73587,14.73587,0,0,0-6.682-11.57379c-3.70308-2.138-6.71372-.415-6.72576,3.83281a14.72462,14.72462,0,0,0,6.68208,11.57376"/><path class="cls-2" d="M183.1378,193.74864,171.76866,105.286c-1.514-11.88208-9.7583-25.056-19.75665-30.82855-5.5752-3.21888-10.61988-3.5152-14.26538-1.39661L117.76817,84.67106c3.64551-2.11859,8.69019-1.82227,14.26538,1.39661,9.99835,5.77252,18.24268,18.94647,19.75659,30.82849l11.36921,88.46264a10.06435,10.06435,0,0,1,.09838,1.36481c-.00634,2.2406-.7962,3.815-2.06982,4.55518l19.97845-11.61017c1.27369-.74018,2.06348-2.31464,2.06983-4.55518A10.05308,10.05308,0,0,0,183.1378,193.74864Z"/></g></svg>