<svg id="instructions" xmlns="http://www.w3.org/2000/svg" viewBox="0 0 283.46457 283.46457"><defs><style>.cls-1{isolation:isolate;}.cls-2{fill:#fff;stroke:#000;stroke-miterlimit:10;}</style></defs><title>04-torso-side</title><g class="cls-1"><path class="cls-2" d="M98.988,121.58412A14.72458,14.72458,0,0,1,92.306,110.01033c.006-2.11383.752-3.60095,1.95532-4.30023L74.2829,117.32026c-1.20331.69934-1.94934,2.18647-1.95533,4.3003a14.72445,14.72445,0,0,0,6.682,11.57379c1.8595,1.07355,3.54535,1.17309,4.76331.46527l19.97845-11.61023C102.53332,122.75721,100.84747,122.65767,98.988,121.58412Z"/><path class="cls-2" d="M71.89441,62.08583a14.72421,14.72421,0,0,1-6.68207-11.57367c.006-2.114.752-3.60114,1.95532-4.30042L47.18921,57.822c-1.20337.69928-1.94934,2.18647-1.95539,4.30042A14.72467,14.72467,0,0,0,51.916,73.69606c1.86341,1.0758,3.55146,1.17584,4.77033.46753L76.66473,62.55336C75.44586,63.26173,73.75781,63.16169,71.89441,62.08583Z"/><path class="cls-2" d="M204.39874,182.44307a14.73583,14.73583,0,0,1-6.68213-11.57392c.006-2.11285.75293-3.59869,1.95606-4.29791l-19.97846,11.61023c-1.20318.69922-1.95007,2.185-1.95605,4.29791a14.73581,14.73581,0,0,0,6.68213,11.57392c1.86334,1.0758,3.55139,1.17584,4.77026.46753L209.169,182.9106C207.95013,183.61891,206.26208,183.51887,204.39874,182.44307Z"/><path class="cls-2" d="M231.61017,198.15364a14.72478,14.72478,0,0,1-6.68207-11.57392c.006-2.11383.752-3.601,1.95526-4.30023l-19.97845,11.61023c-1.20325.69928-1.94928,2.1864-1.95527,4.30023a14.72438,14.72438,0,0,0,6.68213,11.57386c1.86335,1.07586,3.55139,1.1759,4.77027.46753l19.97839-11.61017C235.16168,199.32948,233.47369,199.22944,231.61017,198.15364Z"/><path class="cls-2" d="M193.73065,101.57924,71.9881,31.29115c-5.58716-3.22577-10.65149-3.524-14.3089-1.39856L37.70074,41.50276c3.65741-2.12543,8.72168-1.82715,14.3089,1.39862L173.7522,113.18947c32.14038,18.55627,58.11126,63.54693,58.00653,100.47869-.052,18.35181-6.53028,31.26307-16.97791,37.33454l19.97852-11.61023c10.44751-6.07147,16.92578-18.98273,16.97778-37.33454C251.84186,165.12617,225.871,120.13551,193.73065,101.57924Z"/><path class="cls-2" d="M173.75217,113.18944c32.14041,18.55627,58.11126,63.54694,58.00656,100.47872-.10472,36.93909-26.24536,51.83586-58.38576,33.27958l-83.639-48.289C57.5936,180.10249,31.62272,135.11913,31.72745,98.18l.105-43.7803c.03617-12.75823,9.07418-17.90871,20.1772-11.49838ZM51.916,73.69606c3.703,2.13792,6.71354.42231,6.7256-3.83271a14.72447,14.72447,0,0,0-6.68192-11.57379c-3.70319-2.138-6.71374-.42242-6.7258,3.83284A14.72445,14.72445,0,0,0,51.916,73.69606M184.42028,194.05327c3.703,2.13792,6.71353.42231,6.7256-3.833a14.72441,14.72441,0,0,0-6.68192-11.57355c-3.69684-2.13437-6.71374-.42242-6.7258,3.8326a14.73579,14.73579,0,0,0,6.68212,11.5739m27.2115,15.71056c3.703,2.13793,6.71353.42231,6.72559-3.833a14.72436,14.72436,0,0,0-6.68192-11.57354c-3.70319-2.138-6.71373-.42243-6.7258,3.83259a14.7245,14.7245,0,0,0,6.68213,11.5739M79.0095,133.19432c3.69683,2.13437,6.70737.41875,6.71944-3.8365a14.72244,14.72244,0,0,0-6.67577-11.57c-3.703-2.13793-6.71353-.42231-6.72559,3.83271a14.72441,14.72441,0,0,0,6.68192,11.57378"/></g></svg>