<svg id="instructions" xmlns="http://www.w3.org/2000/svg" viewBox="0 0 283.46457 283.46457"><defs><style>.cls-1{isolation:isolate;}.cls-2{fill:#fff;stroke:#000;stroke-miterlimit:10;}</style></defs><title>05-head-A</title><g class="cls-1"><path class="cls-2" d="M141.32784,232.9212a14.736,14.736,0,0,1-6.68213-11.57392c.006-2.113.75293-3.59881,1.95606-4.298l-39.95691,23.2204c-1.20313.69922-1.95008,2.18506-1.95606,4.298a14.736,14.736,0,0,0,6.68213,11.57391c1.86328,1.07581,3.55139,1.17585,4.77027.46753l39.957-23.22046C144.87923,234.097,143.19124,233.997,141.32784,232.9212Z"/><path class="cls-2" d="M121.87215,130.31908l-.3678,129.7306c-.01794,6.34179-2.256,10.80328-5.866,12.90118L155.5953,249.7304c3.60986-2.09784,5.848-6.55939,5.866-12.90118l.3678-129.73053Z"/><path class="cls-2" d="M161.93831,68.58215a14.72207,14.72207,0,0,1-6.682-11.56635c.006-2.11389.75195-3.60107,1.9552-4.30035L117.25472,75.93591c-1.20337.69928-1.94946,2.1864-1.95532,4.30035a14.72207,14.72207,0,0,0,6.68188,11.56635c1.86426,1.07629,3.553,1.176,4.772.46759l39.957-23.2204C165.49129,69.75817,163.80257,69.6585,161.93831,68.58215Z"/><path class="cls-2" d="M162.09115,14.67388c-11.17749-6.45337-21.30445-7.05267-28.61695-2.8031L93.51729,35.09118c7.3125-4.24951,17.43934-3.65021,28.61683,2.8031,22.2124,12.82428,40.15844,43.90808,40.08605,69.4317-.036,12.67706-4.51269,21.59857-11.73266,25.79437l39.95691-23.22045c7.22-4.19581,11.69678-13.11725,11.73266-25.79432C202.24947,58.582,184.3033,27.49816,162.09115,14.67388Z"/><path class="cls-2" d="M122.13418,37.89429c22.21229,12.82427,40.15834,43.90808,40.086,69.4317-.07234,25.51632-18.13572,35.81738-40.348,22.99311l-.36779,129.73056c-.03619,12.76555-9.06787,17.91243-20.17712,11.4985-11.103-6.41034-20.07607-21.95224-20.03988-34.71779l.4988-175.943C81.85853,35.36379,99.92189,25.07,122.13418,37.89429ZM101.37093,256.1416c3.703,2.13791,6.71359.42226,6.72566-3.83292a14.7244,14.7244,0,0,0-6.682-11.57365c-3.69678-2.13434-6.71374-.42252-6.72581,3.83266a14.736,14.736,0,0,0,6.68213,11.57391m20.61042-164.339c3.70313,2.138,6.71359.42244,6.72563-3.82544a14.72409,14.72409,0,0,0-6.682-11.57365c-3.70314-2.138-6.71359-.42243-6.72566,3.83275a14.72224,14.72224,0,0,0,6.682,11.56634"/></g></svg>