<svg id="instructions" xmlns="http://www.w3.org/2000/svg" viewBox="0 0 283.46457 283.46457"><defs><style>.cls-1{isolation:isolate;}.cls-2{fill:#fff;stroke:#000;stroke-miterlimit:10;}</style></defs><title>06-head-B</title><g class="cls-1"><path class="cls-2" d="M141.38087,185.41274a14.72447,14.72447,0,0,1-6.68212-11.57379c.006-2.11389.752-3.60107,1.95532-4.30035L96.69716,192.75906c-1.20325.69928-1.94934,2.18646-1.95532,4.30035a14.72434,14.72434,0,0,0,6.682,11.57379c1.86353,1.07587,3.55152,1.17591,4.77051.46759l39.95679-23.22046C144.93239,186.58871,143.24428,186.48861,141.38087,185.41274Z"/><path class="cls-2" d="M121.62282,189.43887l-.06543,23.10254c-.01795,6.34167-2.25611,10.80316-5.866,12.901l39.95691-23.2204c3.61-2.0979,5.848-6.55933,5.86609-12.90106l.06543-23.10248Z"/><path class="cls-2" d="M141.57729,116.09786a14.73565,14.73565,0,0,1-6.682-11.57379c.006-2.11389.75195-3.60107,1.95532-4.30035l-39.957,23.22046c-1.20325.69928-1.94922,2.1864-1.95532,4.30035a14.73611,14.73611,0,0,0,6.68213,11.57379c1.86267,1.07538,3.55,1.17395,4.76879.4657l39.957-23.22046C145.12746,117.27188,143.44,117.1733,141.57729,116.09786Z"/><path class="cls-2" d="M141.9902,108.62193c22.21221,12.82422,40.16461,43.91176,40.09225,69.43528l-.0655,23.10251c-.03619,12.76537-9.07424,17.90868-20.17708,11.49846l-40.217-23.21929-.0655,23.10251c-.03619,12.76537-9.068,17.91231-20.17721,11.49838-11.103-6.4103-20.076-21.95229-20.03976-34.71766l.083-29.28719c-11.99968-14.93045-20.0467-34.53787-19.99821-51.63919.07235-25.52352,18.13577-35.81732,40.348-22.99309Zm-40.36982,30.69639c3.70312,2.138,6.71369.415,6.72574-3.8328a14.72452,14.72452,0,0,0-6.68206-11.57379c-3.70313-2.138-6.71368-.42238-6.72574,3.8328a14.73585,14.73585,0,0,0,6.68206,11.57379m-.19651,69.31488c3.70313,2.138,6.71367.42238,6.72574-3.8328a14.7245,14.7245,0,0,0-6.68206-11.57378c-3.70313-2.138-6.71367-.42238-6.72574,3.83279a14.72452,14.72452,0,0,0,6.68206,11.57379"/><path class="cls-2" d="M181.94716,85.40151l-40.21692-23.2193c-11.17749-6.4533-21.30444-7.05261-28.61694-2.803L73.15639,82.59957c7.3125-4.24951,17.43933-3.6502,28.61682,2.8031l40.217,23.21924c22.21216,12.82422,40.16455,43.91181,40.09228,69.4353l-.06555,23.10248c-.01794,6.34082-2.257,10.801-5.86682,12.89881l39.95691-23.2204c3.60986-2.09784,5.84876-6.55805,5.86682-12.89881l.06543-23.10253C222.11171,129.31326,204.15932,98.22573,181.94716,85.40151Z"/></g></svg>