<svg id="instructions" xmlns="http://www.w3.org/2000/svg" viewBox="0 0 283.46457 283.46457"><defs><style>.cls-1{isolation:isolate;}.cls-2{fill:#fff;stroke:#000;stroke-miterlimit:10;}</style></defs><title>07-torso-A</title><g class="cls-1"><path class="cls-2" d="M112.93558,107.03423a14.72466,14.72466,0,0,1-6.68225-11.57386c.006-2.11389.75207-3.601,1.9552-4.30029L68.25174,114.38054c-1.20337.69928-1.94934,2.18634-1.95532,4.30029a14.725,14.725,0,0,0,6.68213,11.57386c1.86352,1.0758,3.55151,1.17584,4.77051.46746l39.95678-23.22039C116.48709,108.21007,114.79886,108.11009,112.93558,107.03423Z"/><path class="cls-2" d="M85.811,62.92784,72.79886,55.41539c-1.97253-1.13892-3.76025-1.24438-5.05127-.49414L27.79068,78.14171c1.291-.75031,3.07874-.64478,5.05139.49408L45.854,86.1483c5.584,3.22388,10.64331,3.52307,14.29675,1.4L100.1077,64.32781C96.45438,66.451,91.39493,66.15178,85.811,62.92784Z"/><path class="cls-2" d="M250.69181,201.99962l-5.17151-2.98578c-8.33838-4.81415-15.479-14.77893-18.501-24.84936a7.8566,7.8566,0,0,0-3.26184-4.38166,3.082,3.082,0,0,0-1.79553-.47821,6.07588,6.07588,0,0,1-3.6106-.95312,15.59922,15.59922,0,0,1-7.07666-12.257c.00635-2.23786.79675-3.81262,2.07129-4.55329l-39.95691,23.2204c-1.27453.74072-2.06506,2.31543-2.07141,4.55335a15.59986,15.59986,0,0,0,7.07666,12.257,6.07663,6.07663,0,0,0,3.6106.95306,3.0823,3.0823,0,0,1,1.79565.47821,7.856,7.856,0,0,1,3.26172,4.38171c3.02209,10.07044,10.16272,20.03516,18.5011,24.84931L210.7349,225.22a15.59963,15.59963,0,0,1,7.07666,12.25726,5.84621,5.84621,0,0,1-1.11695,3.72742,28.76734,28.76734,0,0,1-7.93774,6.86175l39.957-23.2204a28.77106,28.77106,0,0,0,7.93774-6.86175,5.84636,5.84636,0,0,0,1.11683-3.72748A15.59931,15.59931,0,0,0,250.69181,201.99962Z"/><path class="cls-2" d="M220.06644,95.703a90.8899,90.8899,0,0,0-12.38818-8.67346L113.13419,32.44444c-1.97278-1.13891-3.76062-1.24444-5.05164-.49414L68.12564,55.1707c1.29114-.75024,3.07886-.64477,5.05164.4942L167.72135,110.25a90.90047,90.90047,0,0,1,12.3883,8.67346c3.19629,2.64624,5.58142,7.29339,5.57031,11.20379l-.12988,45.84552a2.48461,2.48461,0,0,1-1.03564,2.27649l39.95678-23.22039a2.48448,2.48448,0,0,0,1.03565-2.27656l.13013-45.84552C225.648,102.99638,223.26285,98.34923,220.06644,95.703Z"/><path class="cls-2" d="M210.73489,225.22a15.59943,15.59943,0,0,1,7.07665,12.25725,5.84582,5.84582,0,0,1-1.1169,3.72743c-10.358,12.82467-28.60247,14.7835-49.35251,2.80346L83.70946,195.72282c-32.14038-18.55625-58.1178-63.54344-58.01308-100.48244l.02292-12.54533c.01278-4.50469,3.20265-6.32251,7.12272-4.05925l13.012,7.5125C56.9506,92.5549,65.97584,87.41168,66.012,74.6609l.04235-14.93709c.01277-4.50447,3.20264-6.32228,7.12291-4.05891L167.72134,110.25a90.89793,90.89793,0,0,1,12.38822,8.67346c3.19637,2.64626,5.58151,7.2934,5.57043,11.20382l-.13,45.84551c-.00638,2.25224-1.60132,3.16114-3.56155,2.0294a6.018,6.018,0,0,1-1.18038-.90933,11.91866,11.91866,0,0,0-2.36744-1.837c-3.92027-2.26337-7.11014-.44556-7.12291,4.05913a15.59941,15.59941,0,0,0,7.07666,12.257,6.07622,6.07622,0,0,0,3.61057.95309,3.08219,3.08219,0,0,1,1.7956.47821,7.85614,7.85614,0,0,1,3.26176,4.38168c3.02207,10.07043,10.16269,20.03517,18.50108,24.84934ZM72.97862,130.25467c3.703,2.13792,6.71365.42224,6.72571-3.83278a14.7245,14.7245,0,0,0-6.682-11.57375c-3.70319-2.138-6.71384-.42258-6.72591,3.83267a14.72493,14.72493,0,0,0,6.68223,11.57386"/></g></svg>