<svg id="instructions" xmlns="http://www.w3.org/2000/svg" viewBox="0 0 283.46457 283.46457"><defs><style>.cls-1{isolation:isolate;}.cls-2{fill:#fff;stroke:#000;stroke-miterlimit:10;}</style></defs><title>08-torso-B</title><g class="cls-1"><path class="cls-2" d="M161.53477,197.79865a14.725,14.725,0,0,1-6.68225-11.57391c.006-2.11383.75208-3.60095,1.95545-4.30023l-39.957,23.22046c-1.20337.69928-1.94934,2.18634-1.95533,4.30017a14.72518,14.72518,0,0,0,6.68225,11.57391c1.86341,1.07581,3.5514,1.17584,4.77015.46753l39.957-23.2204C165.08617,198.9745,163.39818,198.87446,161.53477,197.79865Z"/><path class="cls-2" d="M161.87694,77.12135a15.60009,15.60009,0,0,1-7.07679-12.25745,6.02253,6.02253,0,0,1,.98865-3.56622,2.99234,2.99234,0,0,0,.49744-1.78528,7.8455,7.8455,0,0,0-2.16651-5.02045,48.07946,48.07946,0,0,1-10.22839-17.07513l-.317-.97669-6.28955-19.23932a15.6246,15.6246,0,0,0-6.42028-8.42236,6.61915,6.61915,0,0,0-2.99866-.96167,3.76157,3.76157,0,0,0-1.35632.16467,28.12128,28.12128,0,0,0-5.87012,2.56244L80.68248,33.76435a28.12485,28.12485,0,0,1,5.87012-2.5625,3.76168,3.76168,0,0,1,1.35644-.16467,6.61871,6.61871,0,0,1,2.99854.96173,15.62372,15.62372,0,0,1,6.42016,8.4223l6.28968,19.23932.317.97675a48.07949,48.07949,0,0,0,10.2284,17.07513,7.8459,7.8459,0,0,1,2.1665,5.02045,2.99208,2.99208,0,0,1-.49744,1.78521,6.0235,6.0235,0,0,0-.98864,3.56623A15.59953,15.59953,0,0,0,121.92,100.34181c1.97265,1.13885,3.76025,1.24432,5.05139.49407l39.95691-23.22045C165.63731,78.36573,163.84947,78.26026,161.87694,77.12135Z"/><path class="cls-2" d="M128.62993,86.95484l39.95692-23.22041a1.89469,1.89469,0,0,1,1.14335-.22976,10.75976,10.75976,0,0,0,6.49893-1.30094L136.2722,85.42417a10.75978,10.75978,0,0,1-6.49892,1.30093A1.8948,1.8948,0,0,0,128.62993,86.95484Z"/><path class="cls-2" d="M157.56279,72.19962c13.76913,20.19952,22.60865,44.51943,22.54748,66.09589l-.27886,96.09659c-.10472,36.93906-26.24548,51.83589-58.38581,33.27966l-10.91141-6.28518a15.59943,15.59943,0,0,1-7.07677-12.25722l.04237-14.94442c.03617-12.75815-8.93045-28.28894-20.027-34.69554l-12.99918-7.50508a15.59971,15.59971,0,0,1-7.07657-12.25711l.308-108.6383c.06117-21.57646,9.00927-35.62667,22.84754-39.887a3.76125,3.76125,0,0,1,1.35641-.16465,6.61832,6.61832,0,0,1,2.99855.96168,15.62443,15.62443,0,0,1,6.42027,8.42235l6.28958,19.23932.317.9767A48.07976,48.07976,0,0,0,114.16284,77.7124a7.846,7.846,0,0,1,2.16651,5.02046,2.9928,2.9928,0,0,1-.49746,1.78523,6.02281,6.02281,0,0,0-.98867,3.56624A15.59985,15.59985,0,0,0,121.92,100.34178c3.92009,2.26326,7.11005.4454,7.12282-4.05931a12.97519,12.97519,0,0,0-.96525-4.69434,6.46566,6.46566,0,0,1-.48573-2.35287c.00481-1.69463.90914-2.62749,2.18145-2.51016A10.17948,10.17948,0,0,0,140.07137,81.501l.32168-.608,6.37132-11.92955c1.21465-2.26772,3.78072-2.533,6.45319-.98985a12.45178,12.45178,0,0,1,2.99439,2.49834A15.86014,15.86014,0,0,1,157.56279,72.19962ZM121.57786,221.01906c3.70306,2.138,6.71349.4222,6.72555-3.8329a14.72436,14.72436,0,0,0-6.68187-11.57369c-3.70306-2.138-6.71387-.42241-6.72593,3.83269a14.72512,14.72512,0,0,0,6.68225,11.5739"/><path class="cls-2" d="M197.51964,48.9792a15.82159,15.82159,0,0,0-1.35083-1.72767,12.44718,12.44718,0,0,0-2.99439-2.49835c-1.88574-1.08893-3.7185-1.27734-5.06079-.49725l-39.957,23.22046c1.34253-.78015,3.17529-.59168,5.061.49719a12.45537,12.45537,0,0,1,2.99438,2.49835,15.87638,15.87638,0,0,1,1.35083,1.72772c13.769,20.19947,22.60864,44.51941,22.54736,66.09583l-.27881,96.09662c-.052,18.3518-6.53027,31.26306-16.978,37.33453l39.957-23.2204c10.44751-6.07153,16.926-18.98278,16.97778-37.33459l.27905-96.09656C220.12828,93.4986,211.28892,69.17872,197.51964,48.9792Z"/></g></svg>