<svg id="instructions" xmlns="http://www.w3.org/2000/svg" viewBox="0 0 283.46457 283.46457"><defs><style>.cls-1{isolation:isolate;}.cls-2{fill:#fff;stroke:#000;stroke-miterlimit:10;}</style></defs><title>03-tail</title><g class="cls-1"><path class="cls-2" d="M184.4833,153.85434a14.72443,14.72443,0,0,1-6.68207-11.5738c.006-2.11114.75263-3.59863,1.95685-4.2984l-39.957,23.2204c-1.20416.69983-1.95081,2.18732-1.95679,4.29846a14.72451,14.72451,0,0,0,6.682,11.57379c1.86346,1.07581,3.55157,1.17591,4.77045.46753l39.9569-23.22039C188.03481,155.03024,186.3467,154.9302,184.4833,153.85434Z"/><path class="cls-2" d="M184.58334,123.07058l-58.65583-33.865c-1.97271-1.13891-3.7605-1.24438-5.05151-.49408l-39.957,23.2204c1.29108-.7503,3.07886-.64477,5.05157.49414L144.62643,146.291c11.10278,6.41022,20.06958,21.93854,20.03344,34.68469-.01477,6.34265-2.25158,10.80341-5.86035,12.90058l39.957-23.2204c3.60871-2.09717,5.84552-6.558,5.86029-12.90064C204.65292,145.00912,195.68612,129.48074,184.58334,123.07058Z"/><path class="cls-2" d="M144.62642,146.291c11.10277,6.41019,20.0696,21.93852,20.03346,34.68464-.02975,12.76181-9.05507,17.905-20.15159,11.50579a35.35169,35.35169,0,0,1-8.49818-7.10363l-53.078-59.13458a15.64043,15.64043,0,0,1-4.08443-9.75808c.01277-4.50458,3.20273-6.32241,7.12291-4.0591Zm-.10006,30.78376c3.70308,2.138,6.71367.42239,6.72574-3.8328A14.72454,14.72454,0,0,0,144.57,161.66825c-3.70312-2.138-6.7137-.41506-6.72574,3.83273a14.72449,14.72449,0,0,0,6.68206,11.57379"/></g></svg>